# xmcd
# Track frame offsets:
# 150
# 14997
# 32510
# 46890
# 75875
# 90620
# 102007
# 122222
# 132602
# 147955
# 160142
# 177742
#
# Disc length: 2530 seconds
# Revision: 0
# Processed by: cddbd v1.4PL0 Copyright (c) Steve Scherf et al.
# Submitted via: VisiTrax 2.9.5.181 - For more info visit www.synapsa.com
#
DISCID=9e09e00c
DTITLE=Diverse - Dansk Country
DYEAR=1992
DGENRE=Country
TTITLE0=Lecia - Cowgirl-medley
TTITLE1=Johnny Madsen - Det er mig og min traktor
TTITLE2=Ester Brohus - Kold and varm
TTITLE3=Peter Abrahamsen - Anna Cathrine
TTITLE4=Lecia - Doktor,doktor
TTITLE5=Eva Madsen - Blot et sekund
TTITLE6=Lone kellermann - Mig og min Bobby McGee
TTITLE7=Johnny Madsen - 9 punds muggert
TTITLE8=Ulla Bjerre - Det er bare altid sådan
TTITLE9=Eva Madsen - Lastbilchaufføren
TTITLE10=Peter Abrahamsen - To og to er lige
TTITLE11=Lecia - For altid
EXTD=Harlekin Records\nc:Klokholm
EXTT0=
EXTT1=
EXTT2=
EXTT3=
EXTT4=
EXTT5=
EXTT6=
EXTT7=
EXTT8=
EXTT9=
EXTT10=
EXTT11=
PLAYORDER=
